<svg width="58" height="58" viewBox="0 0 58 58" fill="none" xmlns="http://www.w3.org/2000/svg">
<circle cx="28.8138" cy="28.8137" r="28.5" transform="rotate(0.634235 28.8138 28.8137)" fill="white"/>
<path fill-rule="evenodd" clip-rule="evenodd" d="M21.7976 17.0508C22.4705 15.6264 23.5342 14.4226 24.8649 13.5795C26.1956 12.7364 27.7384 12.2888 29.3137 12.2888C30.889 12.2888 32.4318 12.7364 33.7625 13.5795C35.0932 14.4226 36.1569 15.6264 36.8298 17.0508C38.8861 16.9597 40.9127 17.568 42.5789 18.7767C44.245 19.9854 45.4524 21.723 46.0041 23.7061C46.5557 25.6891 46.4191 27.8006 45.6165 29.6961C44.8138 31.5915 43.3926 33.159 41.5845 34.1429V38.8961C41.5845 40.3195 41.5845 41.5054 41.4579 42.4459C41.3249 43.4402 41.0304 44.338 40.3084 45.0584C39.588 45.7804 38.6902 46.0749 37.6959 46.2079C36.7554 46.3346 35.5679 46.3346 34.146 46.3346H24.4814C23.0595 46.3346 21.872 46.3346 20.9315 46.2079C19.9372 46.0749 19.0395 45.7804 18.319 45.0584C17.597 44.338 17.3025 43.4402 17.1695 42.4459C17.0429 41.5054 17.0429 40.3195 17.0429 38.8961V34.1445C15.2348 33.1606 13.8136 31.5931 13.011 29.6977C12.2083 27.8022 12.0717 25.6907 12.6233 23.7076C13.175 21.7246 14.3824 19.987 16.0485 18.7783C17.7147 17.5696 19.7413 16.9597 21.7976 17.0508ZM21.0851 19.4274C19.5673 19.4975 18.1179 20.0793 16.9728 21.078C15.8277 22.0767 15.0543 23.4335 14.7785 24.9277C14.5026 26.4219 14.7405 27.9654 15.4536 29.3071C16.1666 30.6489 17.3127 31.7098 18.7054 32.3173C18.917 32.4097 19.0972 32.5618 19.2237 32.755C19.3503 32.9482 19.4178 33.1741 19.4179 33.4051V37.6262H39.2095V33.4051C39.2097 33.1741 39.2771 32.9482 39.4037 32.755C39.5302 32.5618 39.7104 32.4097 39.922 32.3173C41.3142 31.7092 42.4598 30.6481 43.1724 29.3064C43.885 27.9647 44.1227 26.4213 43.847 24.9274C43.5712 23.4334 42.7981 22.0767 41.6534 21.0778C40.5088 20.079 39.0598 19.4967 37.5423 19.4258C37.5977 19.8106 37.6262 20.2048 37.6262 20.6054V21.3971C37.6262 21.712 37.5011 22.014 37.2784 22.2367C37.0557 22.4594 36.7536 22.5846 36.4387 22.5846C36.1238 22.5846 35.8217 22.4594 35.599 22.2367C35.3763 22.014 35.2512 21.712 35.2512 21.3971V20.6054C35.252 19.8254 35.099 19.053 34.8009 18.3322C34.5028 17.6115 34.0655 16.9566 33.514 16.4051C32.9625 15.8536 32.3076 15.4162 31.5869 15.1182C30.8661 14.8201 30.0937 14.6671 29.3137 14.6679C27.7392 14.6687 26.2295 15.2946 25.1162 16.4079C24.0029 17.5212 23.377 19.0309 23.3762 20.6054V21.3971C23.3762 21.712 23.2511 22.014 23.0284 22.2367C22.8057 22.4594 22.5036 22.5846 22.1887 22.5846C21.8738 22.5846 21.5717 22.4594 21.349 22.2367C21.1263 22.014 21.0012 21.712 21.0012 21.3971V20.6054C21.0012 20.2048 21.0297 19.8121 21.0851 19.4274ZM39.2064 40.0012H19.421C19.4274 40.9037 19.4495 41.5846 19.524 42.1308C19.6221 42.8607 19.7915 43.1742 19.999 43.3801C20.2048 43.5859 20.5167 43.7553 21.2466 43.8551C22.0114 43.9564 23.0374 43.9596 24.5637 43.9596H34.0637C35.59 43.9596 36.616 43.9564 37.3808 43.8535C38.1107 43.7553 38.4242 43.5859 38.63 43.3785C38.8359 43.1726 39.0053 42.8607 39.105 42.1308C39.1779 41.583 39.2 40.9021 39.2064 40.0012ZM32.8825 24.0539C34.3614 24.5716 35.2512 25.9935 35.2512 27.7304C35.2512 28.9496 34.553 30.0278 33.8658 30.8226C33.1485 31.6523 32.2603 32.3791 31.532 32.9126L31.4211 32.9966C30.8638 33.4082 30.2305 33.8753 29.3137 33.8753C28.3954 33.8753 27.762 33.4066 27.2079 32.9966C27.171 32.969 27.1341 32.9416 27.097 32.9142C26.3687 32.3791 25.4789 31.6523 24.7616 30.8226C24.0729 30.0262 23.3762 28.9496 23.3762 27.7304C23.3762 25.9935 24.266 24.5716 25.7449 24.0539C26.8991 23.6486 28.18 23.8766 29.3137 24.6239C30.4474 23.8766 31.7283 23.6486 32.8825 24.0539ZM32.0972 26.2943C31.7014 26.155 30.9667 26.1993 30.1339 26.9973C29.9129 27.2088 29.6188 27.3268 29.3129 27.3268C29.007 27.3268 28.713 27.2088 28.492 26.9973C27.6607 26.1993 26.926 26.155 26.5286 26.2943C26.1676 26.421 25.7512 26.8184 25.7512 27.7304C25.7512 28.0708 25.9745 28.5949 26.5587 29.2694C27.1097 29.9075 27.8396 30.5139 28.4999 30.9984C28.7116 31.1644 28.9337 31.3167 29.1649 31.4544C29.2504 31.5003 29.2757 31.5019 29.3137 31.5019C29.3517 31.5019 29.377 31.5003 29.4625 31.4544C29.6937 31.3167 29.9158 31.1644 30.1275 30.9984C30.7878 30.5139 31.5177 29.9059 32.0703 29.2694C32.653 28.5949 32.8762 28.0708 32.8762 27.7304C32.8762 26.8184 32.4598 26.4226 32.0972 26.2943Z" fill="#413C3C"/>
</svg>
