<svg width="37" height="35" viewBox="0 0 37 35" fill="none" xmlns="http://www.w3.org/2000/svg">
<path d="M17.2686 0.464721C17.608 0.165346 18.0461 0 18.5 0C18.9539 0 19.392 0.165346 19.7314 0.464721L36.4227 15.2021C36.7716 15.5314 36.978 15.9824 36.9983 16.46C37.0187 16.9376 36.8513 17.4043 36.5316 17.7616C36.2118 18.1189 35.7648 18.3387 35.2849 18.3747C34.8051 18.4107 34.3299 18.2599 33.9598 17.9543L33.3367 17.4072V31.3156C33.3367 32.2928 32.9459 33.2299 32.2503 33.9209C31.5547 34.6118 30.6113 35 29.6275 35H7.37248C6.38875 35 5.4453 34.6118 4.7497 33.9209C4.05409 33.2299 3.66331 32.2928 3.66331 31.3156V17.4072L3.04017 17.9543C2.6701 18.2599 2.19494 18.4107 1.71506 18.3747C1.23519 18.3387 0.788172 18.1189 0.468453 17.7616C0.148734 17.4043 -0.0186526 16.9376 0.00165327 16.46C0.0219592 15.9824 0.228367 15.5314 0.577275 15.2021L17.2686 0.464721ZM7.37248 14.1281V31.3156H12.9362V22.1048C12.9362 21.6162 13.1316 21.1476 13.4794 20.8022C13.8272 20.4567 14.299 20.2626 14.7908 20.2626H22.2092C22.701 20.2626 23.1728 20.4567 23.5206 20.8022C23.8684 21.1476 24.0638 21.6162 24.0638 22.1048V31.3156H29.6275V14.13L18.5 4.30566L7.37248 14.1281ZM20.3546 31.3156V23.9469H16.6454V31.3156H20.3546Z" fill="#777C89"/>
</svg>
