<svg width="80" height="80" viewBox="0 0 80 80" fill="none" xmlns="http://www.w3.org/2000/svg">
<path d="M40 11.4286C32.4224 11.4286 25.1551 14.4388 19.7969 19.7969C14.4388 25.1551 11.4286 32.4224 11.4286 40C11.4286 47.5776 14.4388 54.8449 19.7969 60.2031C25.1551 65.5612 32.4224 68.5714 40 68.5714C47.5776 68.5714 54.8449 65.5612 60.2031 60.2031C65.5612 54.8449 68.5714 47.5776 68.5714 40C68.5714 32.4224 65.5612 25.1551 60.2031 19.7969C54.8449 14.4388 47.5776 11.4286 40 11.4286ZM80 40C80 50.6087 75.7857 60.7828 68.2843 68.2843C60.7828 75.7857 50.6087 80 40 80C29.3913 80 19.2172 75.7857 11.7157 68.2843C4.21427 60.7828 0 50.6087 0 40C0 29.3913 4.21427 19.2172 11.7157 11.7157C19.2172 4.21427 29.3913 0 40 0C50.6087 0 60.7828 4.21427 68.2843 11.7157C75.7857 19.2172 80 29.3913 80 40Z" fill="#FF2D2D"/>
</svg>
