<svg width="80" height="80" viewBox="0 0 80 80" fill="none" xmlns="http://www.w3.org/2000/svg">
<path d="M78.3145 70.2323C79.3876 71.3054 79.9905 72.7607 79.9905 74.2782C79.9905 75.7957 79.3876 77.2511 78.3145 78.3241C77.2414 79.3972 75.786 80 74.2684 80C72.7508 80 71.2954 79.3972 70.2223 78.3241L40 48.0942L9.76823 78.3146C8.69513 79.3877 7.2397 79.9905 5.7221 79.9905C4.2045 79.9905 2.74907 79.3877 1.67596 78.3146C0.602863 77.2416 1.59905e-08 75.7862 0 74.2687C-1.59905e-08 72.7512 0.602863 71.2959 1.67596 70.2228L31.9077 40.0024L1.68548 9.77241C0.612382 8.69937 0.00952052 7.24402 0.00952054 5.72652C0.00952055 4.20901 0.612382 2.75366 1.68548 1.68062C2.75859 0.607586 4.21402 0.00475909 5.73162 0.00475908C7.24921 0.00475906 8.70465 0.607586 9.77776 1.68062L40 31.9106L70.2318 1.67586C71.3049 0.602825 72.7603 -2.52816e-08 74.2779 0C75.7955 2.52816e-08 77.2509 0.602825 78.324 1.67586C79.3971 2.7489 80 4.20425 80 5.72176C80 7.23926 79.3971 8.69462 78.324 9.76765L48.0923 40.0024L78.3145 70.2323Z" fill="#4B5DFF"/>
</svg>
